<?xml version="1.0" encoding="UTF-8" standalone="no" ?>
<!DOCTYPE svg PUBLIC "-//W3C//DTD SVG 1.1//EN" "http://www.w3.org/Graphics/SVG/1.1/DTD/svg11.dtd">
<svg xmlns="http://www.w3.org/2000/svg" xmlns:xlink="http://www.w3.org/1999/xlink" version="1.1" width="1080" height="1080" viewBox="0 0 1080 1080" xml:space="preserve">
<desc>Created with Fabric.js 5.2.4</desc>
<defs>
</defs>
<g transform="matrix(1 0 0 1 540 540)" id="33dd7bf6-684a-44ca-bbcc-9ee5e3a2a277"  >
<rect style="stroke: none; stroke-width: 1; stroke-dasharray: none; stroke-linecap: butt; stroke-dashoffset: 0; stroke-linejoin: miter; stroke-miterlimit: 4; fill: rgb(255,255,255); fill-rule: nonzero; opacity: 1; visibility: hidden;" vector-effect="non-scaling-stroke"  x="-540" y="-540" rx="0" ry="0" width="1080" height="1080" />
</g>
<g transform="matrix(1 0 0 1 540 540)" id="80a2877f-d103-4e3c-9c1c-1b84ddbb9f5a"  >
</g>
<g transform="matrix(1 0 0 1 540 540)"  >
<g style="" vector-effect="non-scaling-stroke"   >
		<g transform="matrix(1 0 0 1 -159.02 0)"  >
<path style="stroke: none; stroke-width: 1; stroke-dasharray: none; stroke-linecap: butt; stroke-dashoffset: 0; stroke-linejoin: miter; stroke-miterlimit: 10; fill: rgb(255,255,255); fill-rule: nonzero; opacity: 1;" vector-effect="non-scaling-stroke"  transform=" translate(-115.98, -235)" d="M 83.32474 195.19248 C 81.67139 195.19248 80.39959 195.82837999999998 79.50932 197.22736999999998 C 78.61906 198.62635999999998 78.36469 200.02533999999997 79.0006 201.42432999999997 L 105.70852000000001 272.00953999999996 C 106.59878 273.91724999999997 107.99777 274.93468999999993 110.03266 274.93468999999993 L 121.73327 274.93468999999993 C 122.62353 274.93468999999993 123.5138 274.6803299999999 124.40406 274.17160999999993 C 125.29432 273.66288999999995 125.80305 272.8997999999999 126.18459 272.0095399999999 L 153.01969 201.42432999999988 C 153.52841 200.0253399999999 153.40123 198.6263599999999 152.51097 197.2273699999999 C 151.62070999999997 195.8283799999999 150.3489 195.1924799999999 148.69555 195.1924799999999 L 140.42881 195.1924799999999 C 139.53855 195.1924799999999 138.64828 195.4468399999999 137.8852 195.9555599999999 C 137.12212 196.5914599999999 136.48621 197.3545499999999 136.10467 198.24480999999992 L 116.39168 252.1693699999999 C 116.2645 252.2965499999999 116.13731999999999 252.4237299999999 116.01013999999999 252.4237299999999 C 115.88296 252.4237299999999 115.75577999999999 252.29654999999988 115.62859999999999 252.1693699999999 L 95.91560999999999 198.24480999999992 C 95.53406999999999 197.3545499999999 95.02534999999999 196.59145999999993 94.26225999999998 195.9555599999999 C 93.49917999999998 195.3196599999999 92.60890999999998 195.0652999999999 91.59146999999999 195.0652999999999 z" stroke-linecap="round" />
</g>
		<g transform="matrix(1 0 0 1 -74.03 0)"  >
<path style="stroke: none; stroke-width: 1; stroke-dasharray: none; stroke-linecap: butt; stroke-dashoffset: 0; stroke-linejoin: miter; stroke-miterlimit: 10; fill: rgb(255,255,255); fill-rule: nonzero; opacity: 1;" vector-effect="non-scaling-stroke"  transform=" translate(-200.97, -235)" d="M 161.41361 251.15193 C 162.43105 253.56835999999998 163.70286000000002 255.98479 165.10185 258.14686 C 166.62802000000002 260.30893000000003 168.15418000000003 262.34382 170.06189 264.12435 C 173.87731 267.93977 178.32863 270.86492 183.54303000000002 272.77263 C 188.75743000000003 274.9347 194.60774 275.95214 200.96677000000003 275.95214 C 207.32580000000002 275.95214 213.17610000000002 274.93469999999996 218.39051000000003 272.77263 C 223.60491000000005 270.86492 228.05623000000003 267.93977 231.87165000000005 264.12435 C 235.30553000000003 260.69047 238.10350000000005 256.36634 240.26557000000005 251.15193 C 242.30046000000004 246.19189 243.31790000000007 240.8503 243.31790000000007 235 C 243.31790000000007 229.27687 242.30046000000007 223.93529 240.26557000000005 218.84807 C 238.23068000000006 213.88803000000001 235.43271000000004 209.56389000000001 231.87165000000005 205.87565 C 228.31059000000005 202.18741 223.85927000000004 199.26226 218.39051000000003 197.22737 C 213.30329000000003 195.0653 207.45298000000003 194.04786000000001 200.96677000000003 194.04786000000001 C 194.48056000000003 194.04786000000001 188.63026000000002 195.0653 183.41585000000003 197.22737 C 178.07427000000004 199.38944 173.62295000000003 202.18741 170.06189000000003 205.87565 C 166.37365000000003 209.56389000000001 163.57568000000003 213.88803000000001 161.54079000000004 218.84807 C 159.63308000000004 224.06247000000002 158.61564000000004 229.40406000000002 158.61564000000004 235 C 158.61564000000004 240.72313 159.63308000000004 246.06471 161.54079000000004 251.15193 z M 176.16655 235 C 176.16655 227.49635 178.32862 221.39168 182.65276 216.686 C 186.9769 211.98032 193.08157 209.69107 200.96676 209.69107 C 208.72477 209.69107 214.82944 211.98032 219.15358 216.686 C 223.47772 221.2645 225.63979 227.36917 225.63979 235 C 225.63979 242.63083 223.47772 248.7355 219.15358 253.314 C 214.82944 258.01968 208.72477 260.30893 200.96676 260.30893 C 193.20874999999998 260.30893 187.10407999999998 258.01968 182.65276 253.31399999999996 C 178.32862 248.60831999999996 176.16655 242.50364999999996 176.16655 234.99999999999997 z" stroke-linecap="round" />
</g>
		<g transform="matrix(1 0 0 1 11.95 -0.13)"  >
<path style="stroke: none; stroke-width: 1; stroke-dasharray: none; stroke-linecap: butt; stroke-dashoffset: 0; stroke-linejoin: miter; stroke-miterlimit: 10; fill: rgb(255,255,255); fill-rule: nonzero; opacity: 1;" vector-effect="non-scaling-stroke"  transform=" translate(-286.95, -234.87)" d="M 251.0759 267.55822 C 250.44 268.3213 250.18563999999998 269.08439 250.18563999999998 269.97465 C 250.05845999999997 270.86491 250.31282 271.628 250.69436 272.39108 C 251.20308 273.15416 251.71179999999998 273.79007 252.47489 274.17161 C 253.23797 274.68032999999997 254.12823999999998 274.93469 255.0185 274.93469 L 263.92114 274.93469 C 265.44730999999996 274.93469 266.71911 274.29879 267.60938 273.15416 L 286.55928 247.71805 C 286.68646 247.33651 286.94082 247.33651 287.32236 247.71805 L 306.27226 273.15416 C 307.03534 274.29879 308.30715000000004 274.93469 309.9605 274.93469 L 318.86314000000004 274.93469 C 319.75340000000006 274.93469 320.64367000000004 274.68032999999997 321.40675000000005 274.17161 C 322.16983000000005 273.66289 322.80574000000007 273.02698 323.18728000000004 272.2639 C 323.696 271.50082 323.82318000000004 270.73773 323.696 269.84747 C 323.56882 268.95721 323.31446000000005 268.19412 322.67856 267.43104 L 297.62399 235.25436 C 297.49681 235.12717999999998 297.49681 234.87282 297.62399 234.61846 L 322.67856 202.56896 C 323.31446 201.80588 323.56882 200.91561000000002 323.696 200.02535 C 323.82318000000004 199.00791 323.696 198.24482 323.31446000000005 197.48174 C 322.9329200000001 196.71866 322.29702000000003 196.08275 321.66111000000006 195.57403 C 320.89803000000006 195.06530999999998 320.0077600000001 194.81095 319.11750000000006 194.81095 L 310.21486000000004 194.81095 C 308.56151000000006 194.81095 307.41689 195.44684999999998 306.52662000000004 196.71866 L 287.57672 222.15476999999998 C 287.19518000000005 222.28195 286.94082000000003 222.28195 286.81364 222.15476999999998 L 267.86374 196.71866 C 266.8463 195.44685 265.57449 194.81095 264.1755 194.81095 L 255.27286 194.81095 C 254.3826 194.81095 253.49233 195.06530999999998 252.85643000000002 195.57403 C 252.09335000000002 196.08275 251.58462000000003 196.71866 251.20308000000003 197.35456 C 250.82154000000003 198.11764 250.56718000000004 198.88073 250.69436000000002 199.77098999999998 C 250.82154000000003 200.66125 251.07590000000002 201.55151999999998 251.7118 202.31459999999998 L 276.76637 234.36409999999998 C 276.89355 234.61845999999997 276.89355 234.87282 276.76637 234.99999999999997 z" stroke-linecap="round" />
</g>
		<g transform="matrix(1 0 0 1 88.89 -0.19)"  >
<path style="stroke: none; stroke-width: 1; stroke-dasharray: none; stroke-linecap: butt; stroke-dashoffset: 0; stroke-linejoin: miter; stroke-miterlimit: 10; fill: rgb(255,255,255); fill-rule: nonzero; opacity: 1;" vector-effect="non-scaling-stroke"  transform=" translate(-363.89, -234.81)" d="M 330.69093 270.3562 C 330.69093 271.62801 331.19964999999996 272.64545 332.08992 273.53571 C 333.10736 274.42597 334.12481 274.9347 335.39661 274.9347 L 392.24632 274.9347 C 393.39095000000003 274.9347 394.53557 274.42598000000004 395.42583 273.53571 C 396.44327000000004 272.51827 396.82482000000005 271.50082 396.82482000000005 270.22902 L 396.82482000000005 263.74280999999996 C 396.82482000000005 262.47099999999995 396.4432800000001 261.32638 395.55301000000003 260.43611999999996 C 394.66275 259.41867999999994 393.51812 259.03712999999993 392.37350000000004 259.03712999999993 L 349.00493000000006 259.03712999999993 C 348.6233900000001 259.03712999999993 348.4962100000001 258.9099499999999 348.4962100000001 258.52840999999995 L 348.4962100000001 241.48620999999994 C 348.4962100000001 241.10466999999994 348.6233900000001 240.97748999999993 349.00493000000006 240.97748999999993 L 385.63293000000004 240.97748999999993 C 386.90474000000006 240.97748999999993 388.04936000000004 240.46876999999992 388.93962000000005 239.57849999999993 C 389.95706000000007 238.56105999999994 390.3386100000001 237.54360999999994 390.3386100000001 236.27180999999993 L 390.3386100000001 229.78559999999993 C 390.3386100000001 228.51378999999994 389.9570700000001 227.36916999999994 389.06680000000006 226.47890999999993 C 388.17654000000005 225.46146999999993 387.03191000000004 225.07991999999993 385.76011000000005 225.07991999999993 L 349.13211000000007 225.07991999999993 C 348.7505700000001 225.07991999999993 348.6233900000001 224.95273999999992 348.6233900000001 224.57119999999992 L 348.6233900000001 210.83569999999992 C 348.6233900000001 210.58133999999993 348.7505700000001 210.45415999999992 349.13211000000007 210.45415999999992 L 392.50068000000005 210.45415999999992 C 393.64531000000005 210.45415999999992 394.78993 209.9454399999999 395.68019000000004 209.05516999999992 C 396.69763000000006 208.1649099999999 397.07918000000006 207.02027999999993 397.07918000000006 205.87565999999993 L 397.07918000000006 199.26226999999992 C 397.07918000000006 198.1176399999999 396.6976400000001 196.9730199999999 395.80737000000005 196.08275999999992 C 394.91711000000004 195.1924999999999 393.77248000000003 194.68376999999992 392.62786000000006 194.68376999999992 L 335.77815000000004 194.68376999999992 C 334.50634 194.68376999999992 333.48890000000006 195.19248999999994 332.59864000000005 196.08275999999992 C 331.70838000000003 196.97301999999993 331.19965 198.1176499999999 331.19965 199.26226999999992 z" stroke-linecap="round" />
</g>
		<g transform="matrix(1 0 0 1 163.29 -0.06)"  >
<path style="stroke: none; stroke-width: 1; stroke-dasharray: none; stroke-linecap: butt; stroke-dashoffset: 0; stroke-linejoin: miter; stroke-miterlimit: 10; fill: rgb(255,255,255); fill-rule: nonzero; opacity: 1;" vector-effect="non-scaling-stroke"  transform=" translate(-438.29, -234.94)" d="M 405.21874 270.3562 C 405.21874 271.62801 405.72746 272.64545 406.61773000000005 273.53571 C 407.6351700000001 274.42597 408.65262000000007 274.9347 409.92442000000005 274.9347 L 466.64695000000006 274.9347 C 467.9187600000001 274.9347 469.06338000000005 274.42598000000004 469.95364000000006 273.53571 C 470.9710800000001 272.51827 471.3526300000001 271.50082 471.3526300000001 270.22902 L 471.3526300000001 263.74280999999996 C 471.3526300000001 262.47099999999995 470.9710900000001 261.32638 470.0808200000001 260.43611999999996 C 469.19056000000006 259.41867999999994 468.04593000000006 259.03712999999993 466.77413000000007 259.03712999999993 L 423.53274000000005 259.03712999999993 C 423.1512000000001 259.03712999999993 423.02402000000006 258.9099499999999 423.02402000000006 258.52840999999995 L 423.02402000000006 199.51662999999996 C 423.02402000000006 198.37199999999996 422.6424800000001 197.22737999999995 421.75221000000005 196.33711999999997 C 420.86195000000004 195.44685999999996 419.71732000000003 194.93812999999997 418.44552000000004 194.93812999999997 L 410.05160000000006 194.93812999999997 C 408.77979000000005 194.93812999999997 407.7623500000001 195.44684999999998 406.87209000000007 196.33711999999997 C 405.98183000000006 197.22737999999998 405.47310000000004 198.37200999999996 405.47310000000004 199.51662999999996 z" stroke-linecap="round" />
</g>
</g>
</g>
</svg>