<?xml version="1.0" encoding="utf-8"?>
<svg viewBox="78.647 194.048 392.705 81.904" xmlns="http://www.w3.org/2000/svg">
  <g fill="#2d2926" fill-rule="nonzero" stroke="none" stroke-width="1" stroke-linecap="butt" stroke-linejoin="miter" stroke-miterlimit="10" stroke-dasharray="" stroke-dashoffset="0" font-family="none" font-weight="none" font-size="none" text-anchor="none" style="mix-blend-mode: normal; fill: rgb(255, 255, 255);">
    <g data-paper-data="{&quot;isGlobalGroup&quot;:true,&quot;bounds&quot;:{&quot;x&quot;:78.64736302782211,&quot;y&quot;:194.0478589184308,&quot;width&quot;:392.7052739443558,&quot;height&quot;:81.90428216313842}}" style="fill: rgb(255, 255, 255);">
      <g data-paper-data="{&quot;isPrimaryText&quot;:true}" style="fill: rgb(255, 255, 255);">
        <path d="M83.32474,195.19248c-1.65335,0 -2.92515,0.6359 -3.81542,2.03489c-0.89026,1.39899 -1.14463,2.79797 -0.50872,4.19696l26.70792,70.58521c0.89026,1.90771 2.28925,2.92515 4.32414,2.92515h11.70061c0.89026,0 1.78053,-0.25436 2.67079,-0.76308c0.89026,-0.50872 1.39899,-1.27181 1.78053,-2.16207l26.8351,-70.58521c0.50872,-1.39899 0.38154,-2.79797 -0.50872,-4.19696c-0.89026,-1.39899 -2.16207,-2.03489 -3.81542,-2.03489h-8.26674c-0.89026,0 -1.78053,0.25436 -2.54361,0.76308c-0.76308,0.6359 -1.39899,1.39899 -1.78053,2.28925l-19.71299,53.92456c-0.12718,0.12718 -0.25436,0.25436 -0.38154,0.25436c-0.12718,0 -0.25436,-0.12718 -0.38154,-0.25436l-19.71299,-53.92456c-0.38154,-0.89026 -0.89026,-1.65335 -1.65335,-2.28925c-0.76308,-0.6359 -1.65335,-0.89026 -2.67079,-0.89026z" data-paper-data="{&quot;glyphName&quot;:&quot;V&quot;,&quot;glyphIndex&quot;:0,&quot;firstGlyphOfWord&quot;:true,&quot;word&quot;:1}" style="fill: rgb(255, 255, 255);"/>
        <path d="M161.41361,251.15193c1.01744,2.41643 2.28925,4.83286 3.68824,6.99493c1.52617,2.16207 3.05233,4.19696 4.96004,5.97749c3.81542,3.81542 8.26674,6.74057 13.48114,8.64828c5.2144,2.16207 11.06471,3.17951 17.42374,3.17951c6.35903,0 12.20933,-1.01744 17.42374,-3.17951c5.2144,-1.90771 9.66572,-4.83286 13.48114,-8.64828c3.43388,-3.43388 6.23185,-7.75801 8.39392,-12.97242c2.03489,-4.96004 3.05233,-10.30163 3.05233,-16.15193c0,-5.72313 -1.01744,-11.06471 -3.05233,-16.15193c-2.03489,-4.96004 -4.83286,-9.28418 -8.39392,-12.97242c-3.56106,-3.68824 -8.01238,-6.61339 -13.48114,-8.64828c-5.08722,-2.16207 -10.93753,-3.17951 -17.42374,-3.17951c-6.48621,0 -12.33651,1.01744 -17.55092,3.17951c-5.34158,2.16207 -9.7929,4.96004 -13.35396,8.64828c-3.68824,3.68824 -6.48621,8.01238 -8.5211,12.97242c-1.90771,5.2144 -2.92515,10.55599 -2.92515,16.15193c0,5.72313 1.01744,11.06471 2.92515,16.15193zM176.16655,235c0,-7.50365 2.16207,-13.60832 6.48621,-18.314c4.32414,-4.70568 10.42881,-6.99493 18.314,-6.99493c7.75801,0 13.86268,2.28925 18.18682,6.99493c4.32414,4.5785 6.48621,10.68317 6.48621,18.314c0,7.63083 -2.16207,13.7355 -6.48621,18.314c-4.32414,4.70568 -10.42881,6.99493 -18.18682,6.99493c-7.75801,0 -13.86268,-2.28925 -18.314,-6.99493c-4.32414,-4.70568 -6.48621,-10.81035 -6.48621,-18.314z" data-paper-data="{&quot;glyphName&quot;:&quot;O&quot;,&quot;glyphIndex&quot;:1,&quot;word&quot;:1}" style="fill: rgb(255, 255, 255);"/>
        <path d="M251.0759,267.55822c-0.6359,0.76308 -0.89026,1.52617 -0.89026,2.41643c-0.12718,0.89026 0.12718,1.65335 0.50872,2.41643c0.50872,0.76308 1.01744,1.39899 1.78053,1.78053c0.76308,0.50872 1.65335,0.76308 2.54361,0.76308h8.90264c1.52617,0 2.79797,-0.6359 3.68824,-1.78053l18.9499,-25.43611c0.12718,-0.38154 0.38154,-0.38154 0.76308,0l18.9499,25.43611c0.76308,1.14463 2.03489,1.78053 3.68824,1.78053h8.90264c0.89026,0 1.78053,-0.25436 2.54361,-0.76308c0.76308,-0.50872 1.39899,-1.14463 1.78053,-1.90771c0.50872,-0.76308 0.6359,-1.52617 0.50872,-2.41643c-0.12718,-0.89026 -0.38154,-1.65335 -1.01744,-2.41643l-25.05457,-32.17668c-0.12718,-0.12718 -0.12718,-0.38154 0,-0.6359l25.05457,-32.0495c0.6359,-0.76308 0.89026,-1.65335 1.01744,-2.54361c0.12718,-1.01744 0,-1.78053 -0.38154,-2.54361c-0.38154,-0.76308 -1.01744,-1.39899 -1.65335,-1.90771c-0.76308,-0.50872 -1.65335,-0.76308 -2.54361,-0.76308h-8.90264c-1.65335,0 -2.79797,0.6359 -3.68824,1.90771l-18.9499,25.43611c-0.38154,0.12718 -0.6359,0.12718 -0.76308,0l-18.9499,-25.43611c-1.01744,-1.27181 -2.28925,-1.90771 -3.68824,-1.90771h-8.90264c-0.89026,0 -1.78053,0.25436 -2.41643,0.76308c-0.76308,0.50872 -1.27181,1.14463 -1.65335,1.78053c-0.38154,0.76308 -0.6359,1.52617 -0.50872,2.41643c0.12718,0.89026 0.38154,1.78053 1.01744,2.54361l25.05457,32.0495c0.12718,0.25436 0.12718,0.50872 0,0.6359z" data-paper-data="{&quot;glyphName&quot;:&quot;X&quot;,&quot;glyphIndex&quot;:2,&quot;word&quot;:1}" style="fill: rgb(255, 255, 255);"/>
        <path d="M330.69093,270.3562c0,1.27181 0.50872,2.28925 1.39899,3.17951c1.01744,0.89026 2.03489,1.39899 3.30669,1.39899h56.84971c1.14463,0 2.28925,-0.50872 3.17951,-1.39899c1.01744,-1.01744 1.39899,-2.03489 1.39899,-3.30669v-6.48621c0,-1.27181 -0.38154,-2.41643 -1.27181,-3.30669c-0.89026,-1.01744 -2.03489,-1.39899 -3.17951,-1.39899h-43.36857c-0.38154,0 -0.50872,-0.12718 -0.50872,-0.50872v-17.0422c0,-0.38154 0.12718,-0.50872 0.50872,-0.50872h36.628c1.27181,0 2.41643,-0.50872 3.30669,-1.39899c1.01744,-1.01744 1.39899,-2.03489 1.39899,-3.30669v-6.48621c0,-1.27181 -0.38154,-2.41643 -1.27181,-3.30669c-0.89026,-1.01744 -2.03489,-1.39899 -3.30669,-1.39899h-36.628c-0.38154,0 -0.50872,-0.12718 -0.50872,-0.50872v-13.7355c0,-0.25436 0.12718,-0.38154 0.50872,-0.38154h43.36857c1.14463,0 2.28925,-0.50872 3.17951,-1.39899c1.01744,-0.89026 1.39899,-2.03489 1.39899,-3.17951v-6.61339c0,-1.14463 -0.38154,-2.28925 -1.27181,-3.17951c-0.89026,-0.89026 -2.03489,-1.39899 -3.17951,-1.39899h-56.84971c-1.27181,0 -2.28925,0.50872 -3.17951,1.39899c-0.89026,0.89026 -1.39899,2.03489 -1.39899,3.17951z" data-paper-data="{&quot;glyphName&quot;:&quot;E&quot;,&quot;glyphIndex&quot;:3,&quot;word&quot;:1}" style="fill: rgb(255, 255, 255);"/>
        <path d="M405.21874,270.3562c0,1.27181 0.50872,2.28925 1.39899,3.17951c1.01744,0.89026 2.03489,1.39899 3.30669,1.39899h56.72253c1.27181,0 2.41643,-0.50872 3.30669,-1.39899c1.01744,-1.01744 1.39899,-2.03489 1.39899,-3.30669v-6.48621c0,-1.27181 -0.38154,-2.41643 -1.27181,-3.30669c-0.89026,-1.01744 -2.03489,-1.39899 -3.30669,-1.39899h-43.24139c-0.38154,0 -0.50872,-0.12718 -0.50872,-0.50872v-59.01178c0,-1.14463 -0.38154,-2.28925 -1.27181,-3.17951c-0.89026,-0.89026 -2.03489,-1.39899 -3.30669,-1.39899h-8.39392c-1.27181,0 -2.28925,0.50872 -3.17951,1.39899c-0.89026,0.89026 -1.39899,2.03489 -1.39899,3.17951z" data-paper-data="{&quot;glyphName&quot;:&quot;L&quot;,&quot;glyphIndex&quot;:4,&quot;lastGlyphOfWord&quot;:true,&quot;word&quot;:1}" style="fill: rgb(255, 255, 255);"/>
      </g>
    </g>
  </g>
</svg>